<svg width="48" height="46" viewBox="0 0 48 46" fill="none" xmlns="http://www.w3.org/2000/svg">
<path d="M23.681 0C10.6658 0 0 10.4489 0 23.0898C0 35.6574 10.5686 46 23.681 46C36.7772 46 47.3621 35.6729 47.3621 23.0898C47.3621 10.4489 36.6963 0 23.681 0ZM27.8437 42.9004C26.5118 43.1699 25.0964 43.3047 23.681 43.3047C22.2657 43.3047 20.8503 43.1699 19.5184 42.9004V36.5934C19.5184 35.084 19.9346 34.5449 20.4897 33.817C20.7722 33.5033 20.9428 33.2218 22.21 31.3646L20.0734 31.041C14.5784 30.2594 12.414 27.4831 11.5536 25.3268C10.4436 22.443 11.0264 18.831 13.0246 16.5404C13.33 16.1898 13.5797 15.5967 13.3578 14.9769C12.9412 13.737 12.9968 11.7695 13.2743 11.0146C14.7457 11.2189 16.2587 12.2426 17.5205 12.9824C18.1019 13.312 18.4069 13.2249 18.6858 13.252C19.6998 13.047 21.2814 12.5511 23.7089 12.5511C25.2074 12.5511 26.7893 12.7666 28.3435 13.1979C28.6213 13.1916 29.068 13.4211 29.842 12.9824C31.1609 12.2019 32.6225 11.2133 34.0878 11.0146C34.3653 11.7695 34.4209 13.737 34.0046 14.9769C33.7824 15.5967 34.0321 16.1898 34.3378 16.5404C36.3357 18.8314 36.9185 22.443 35.8085 25.3268C34.9481 27.4831 32.7837 30.2594 27.2887 31.041L25.1521 31.3646C26.4619 33.2843 26.6 33.5145 26.8728 33.817C27.4275 34.5449 27.8437 35.084 27.8437 36.5934V42.9004ZM30.6188 42.1188V36.5934C30.6188 35.057 30.2857 34.0329 29.8416 33.278C34.0599 32.1732 37.0573 29.7471 38.3892 26.2702C39.8046 22.6048 39.1664 18.2383 36.8072 15.2194C37.2239 13.4137 37.2239 10.5296 36.2247 9.18196C35.7806 8.5892 35.17 8.26562 34.3931 8.26562C34.3653 8.26562 34.3653 8.26562 34.3653 8.26562C32.2135 8.37863 30.5198 9.43114 28.7041 10.5026C27.039 10.0713 25.3461 9.85579 23.6532 9.85579C21.9329 9.85579 20.2121 10.0983 18.6862 10.5026C16.7747 9.38306 15.0973 8.37582 12.8859 8.26562C12.1921 8.26562 11.5814 8.5892 11.1373 9.18196C10.1386 10.5296 10.1386 13.4137 10.5549 15.2194C8.19564 18.2383 7.55751 22.6315 8.9729 26.2702C10.3048 29.7471 13.3022 32.1732 17.5205 33.278C17.1761 33.863 16.9037 34.6179 16.7964 35.6395C15.9443 35.9249 15.2054 36.0179 14.5181 35.8217C13.7932 35.6136 13.2284 35.1436 12.7377 34.3421C11.6356 32.5438 9.75846 31.0758 7.62111 31.2667L7.86501 33.9515C8.85474 33.8634 9.83976 34.8804 10.3514 35.7189C11.1955 37.0995 12.3327 38.005 13.7322 38.4064C14.771 38.7037 15.7206 38.6967 16.7432 38.4847V42.1188C8.66756 39.3695 2.77512 31.8766 2.77512 23.0898C2.77512 11.9313 12.1921 2.69531 23.681 2.69531C35.17 2.69531 44.587 11.9313 44.587 23.0898C44.587 31.8766 38.6945 39.3695 30.6188 42.1188Z" fill="#73564F"/>
</svg>
