<svg width="49" height="46" viewBox="0 0 49 46" fill="none" xmlns="http://www.w3.org/2000/svg">
<path d="M7.78339 46H23.2316V29.6484H17.6813V24.2578H23.2316V17.5195C23.2316 13.804 26.3438 10.7812 30.1694 10.7812H37.1072V16.1719H31.5569C30.0266 16.1719 28.7818 17.3809 28.7818 18.8672V24.2578H36.8568L35.9317 29.6484H28.7818V46H41.2699C45.0954 46 48.2077 42.9772 48.2077 39.2617V6.73828C48.2077 3.02275 45.0954 0 41.2699 0H7.78339C3.95784 0 0.845581 3.02275 0.845581 6.73828V39.2617C0.845581 42.9772 3.95784 46 7.78339 46ZM3.6207 6.73828C3.6207 4.50903 5.48813 2.69531 7.78339 2.69531H41.2699C43.5651 2.69531 45.4325 4.50903 45.4325 6.73828V39.2617C45.4325 41.491 43.5651 43.3047 41.2699 43.3047H31.5569V32.3438H38.2826L40.1327 21.5625H31.5569V18.8672H39.8823V8.08594H30.1694C24.8135 8.08594 20.4564 12.3177 20.4564 17.5195V21.5625H14.9062V32.3438H20.4564V43.3047H7.78339C5.48813 43.3047 3.6207 41.491 3.6207 39.2617V6.73828Z" fill="#73564F"/>
</svg>
