<svg width="48" height="46" viewBox="0 0 48 46" fill="none" xmlns="http://www.w3.org/2000/svg">
<path d="M7.3606 46H40.8471C44.6726 46 47.7849 42.9772 47.7849 39.2617V6.73828C47.7849 3.02275 44.6726 0 40.8471 0H7.3606C3.53505 0 0.422791 3.02275 0.422791 6.73828V39.2617C0.422791 42.9772 3.53505 46 7.3606 46ZM3.19791 6.73828C3.19791 4.50903 5.06534 2.69531 7.3606 2.69531H40.8471C43.1423 2.69531 45.0098 4.50903 45.0098 6.73828V39.2617C45.0098 41.491 43.1423 43.3047 40.8471 43.3047H7.3606C5.06534 43.3047 3.19791 41.491 3.19791 39.2617V6.73828Z" fill="#73564F"/>
<path d="M24.1038 35.1289C30.9896 35.1289 36.5919 29.6878 36.5919 23C36.5919 16.3123 30.9896 10.8711 24.1038 10.8711C17.2181 10.8711 11.6158 16.3123 11.6158 23C11.6158 29.6878 17.2181 35.1289 24.1038 35.1289ZM24.1038 13.5664C29.4597 13.5664 33.8167 17.7982 33.8167 23C33.8167 28.2018 29.4597 32.4336 24.1038 32.4336C18.748 32.4336 14.3909 28.2018 14.3909 23C14.3909 17.7982 18.748 13.5664 24.1038 13.5664Z" fill="#73564F"/>
<path d="M37.191 12.9123C39.4589 12.9123 41.3041 11.1202 41.3041 8.91754C41.3041 6.71488 39.4589 4.92279 37.191 4.92279C34.9232 4.92279 33.078 6.71488 33.078 8.91754C33.078 11.1202 34.9232 12.9123 37.191 12.9123ZM37.191 7.58596C37.9469 7.58596 38.562 8.18343 38.562 8.91754C38.562 9.65164 37.9469 10.2491 37.191 10.2491C36.4352 10.2491 35.82 9.65164 35.82 8.91754C35.82 8.18343 36.4352 7.58596 37.191 7.58596Z" fill="#73564F"/>
</svg>
