<?xml version="1.0" encoding="UTF-8" standalone="no"?><!-- Generator: Gravit.io --><svg xmlns="http://www.w3.org/2000/svg" xmlns:xlink="http://www.w3.org/1999/xlink" style="isolation:isolate" viewBox="0 0 103 65" width="103pt" height="65pt"><defs><clipPath id="_clipPath_iCJgxQYcP5fzHrzDhQzmm5QCMUWOFath"><rect width="103" height="65"/></clipPath></defs><g clip-path="url(#_clipPath_iCJgxQYcP5fzHrzDhQzmm5QCMUWOFath)"><g><path d=" M 69.023 44.844 C 69.023 49.85 67.276 53.794 63.783 56.677 C 60.289 59.559 55.429 61 49.201 61 C 43.465 61 38.39 59.888 33.977 57.663 L 33.977 46.741 C 37.605 48.409 40.676 49.585 43.189 50.268 C 45.702 50.95 48 51.292 50.084 51.292 C 52.585 51.292 54.503 50.799 55.839 49.813 C 57.176 48.826 57.844 47.36 57.844 45.413 C 57.844 44.326 57.549 43.359 56.961 42.512 C 56.372 41.665 55.508 40.85 54.369 40.066 C 53.228 39.282 50.905 38.031 47.399 36.312 C 44.114 34.719 41.65 33.189 40.008 31.723 C 38.365 30.256 37.054 28.55 36.073 26.603 C 35.092 24.656 34.602 22.381 34.602 19.776 C 34.602 14.872 36.214 11.016 39.438 8.21 C 42.662 5.403 47.118 4 52.806 4 C 55.601 4 58.267 4.341 60.804 5.024 C 63.342 5.707 65.996 6.667 68.766 7.906 L 65.089 17.046 C 62.22 15.832 59.848 14.985 57.972 14.505 C 56.097 14.025 54.252 13.785 52.438 13.785 C 50.28 13.785 48.625 14.303 47.473 15.339 C 46.321 16.376 45.745 17.729 45.745 19.397 C 45.745 20.434 45.978 21.338 46.443 22.109 C 46.909 22.88 47.651 23.626 48.668 24.346 C 49.686 25.067 52.094 26.363 55.894 28.234 C 60.92 30.711 64.365 33.195 66.228 35.686 C 68.092 38.176 69.023 41.229 69.023 44.844 Z " fill="rgb(115,86,79)"/><path d=" M 23.659 46.955 L 23.659 53.218 L 4.025 35.715 L 4.025 31.65 L 23.659 11.782 L 23.659 17.962 L 7.683 33.35 L 23.659 46.955 Z " fill="rgb(115,86,79)"/><path d=" M 79.341 53.218 L 79.341 46.955 L 95.338 33.433 L 79.341 17.962 L 79.341 11.782 L 98.975 31.65 L 98.975 35.715 L 79.341 53.218 Z " fill="rgb(115,86,79)"/></g></g></svg>